# xmcd CD database file
#
# Track frame offsets:
#	150
#	48435
#	80630
#	132062
#	184650
#	222752
#
# Disc length: 3541 seconds
#
# Revision: 0
# Processed by: cddbd v1.5.1PL2 Copyright (c) Steve Scherf et al.
# Submitted via: CDex 1.51
#
DISCID=4c0dd306
DTITLE=The Vienna Art Orchestra - Nightride Of A Lonely Saxophoneplayer (Live) Vol.1
DYEAR=1985
DGENRE=Jazz
TTITLE0=Perpetuum Mobile
TTITLE1=4106
TTITLE2=Seven Changes
TTITLE3=5-String Pinocchio
TTITLE4=Lexicon Of Musical Invective
TTITLE5=Ragtime
EXTD=YEAR: 1985
EXTT0=
EXTT1=
EXTT2=
EXTT3=
EXTT4=
EXTT5=
PLAYORDER=
